<svg xmlns="http://www.w3.org/2000/svg" viewBox="0 0 576.1 147"><path d="M109.1 25.6c0-3.5 2.7-6.3 6.2-6.3 3.3 0 6.1 2.8 6.1 6.3V44H133c3.5 0 6.2 2.6 6.2 6 0 3.6-2.6 6.1-6.2 6.1h-11.6v31.7c0 4.6 2.4 7.5 5.5 7.5 3.5 0 4.1-1 6.3-1 3 0 6 2.2 6 5.8 0 3-2.3 5.3-5.3 6-2.4.5-4.7.7-7.1.7-9.8 0-17.8-7.8-17.8-18.9V25.6zm45.2 35.3c0-10.3 7.7-18.1 17.8-18.1 3 0 6 .4 9 1 2.9.6 4.9 3 4.9 6 0 3.3-2.4 5.8-5.9 5.8-.7 0-1.1 0-2-.2-1.9-.5-4.1-1-6-1-3 0-5.5 2.5-5.5 5.6v40.6c0 3.5-2.8 6.3-6.1 6.3-3.5 0-6.2-2.8-6.2-6.3V60.9zm61.8 42.3l-19.7-51.9c-.2-.7-.5-1.6-.5-2.3 0-3.2 2.9-6.2 6.3-6.2 2.5 0 4.8 1.6 5.6 4l14.4 40 12.3-39.7c.8-2.5 3.2-4.3 5.7-4.3 3.2 0 6.3 2.7 6.3 6.3 0 .6-.1 1.3-.4 1.9l-21.4 65c-3.2 10-11.6 16.6-23 16.6-3.2 0-6.1-2.3-6.1-6 0-3.2 2.6-5.7 5.9-5.8 5.3-.2 9.8-2.4 11.5-7.8l3.1-9.8zm79.8-35.8c0-7.7-4.9-13-12.8-13-8.1 0-12.8 4.7-12.8 13v15.1c0 8.1 4.7 12.9 12.8 12.9 8.1 0 12.8-4.7 12.8-12.9V67.4zm12.3 13.9c0 7.4-2.4 13.8-6.9 18.5-4.5 4.6-10.9 7-18.2 7-7.3 0-13.6-2.4-18.2-7-4.5-4.6-6.9-11.1-6.9-18.5v-13c0-7.4 2.4-13.8 6.9-18.5 4.5-4.6 10.9-7 18.2-7 7.3 0 13.6 2.4 18.2 7 4.5 4.6 6.9 11.1 6.9 18.5v13zm60.5-55.7c0-3.5 2.7-6.3 6.2-6.3 3.3 0 6.1 2.8 6.1 6.3v74.9c0 3.5-2.8 6.3-6.1 6.3-3.5 0-6.2-2.8-6.2-6.3V25.6zm63 53.7h-12.3c-10.4 0-11 5.7-11 7.8 0 2.2.6 8.3 11 8.3 4.1 0 8.5-.6 12.3-1.6V79.3zm12.3 17c0 3.4-2.2 6.3-5.3 7.4-5.9 2.1-12.7 3.2-19.4 3.2-7.3 0-13-1.8-17.1-5.3-4.1-3.5-6.2-8.5-6.2-14.5s2.2-10.6 6.2-14c4.1-3.5 9.8-5.3 17.1-5.3h12.3v-4.2c0-5.1-3.7-9.1-9.9-9.1-5.6 0-8.7.7-12.9 3.3-1 .6-2.3 1.1-3.4 1.1-3.2 0-5.9-2.4-5.9-5.5 0-2.2 1-4.4 3-5.6 6.5-3.8 12.1-4.9 20.7-4.9 13.4 0 20.7 9.8 20.7 20.6v32.8zm50.7-30.2c0-7.4-4.3-11.8-11.7-11.8-4.3 0-8.3 1.6-11.6 4.4v35.1c3.8 1 7.7 1.5 11.6 1.5 7.4 0 11.7-4.2 11.7-11.8V66.1zM507 82.4c0 7.2-2.4 13.2-6.7 17.6-4.3 4.5-10.3 6.8-17.3 6.8-6.5 0-12.7-1.1-18.7-3.2-3.1-1.1-5.3-4-5.3-7.4V25.6c0-3.5 2.7-6.3 6.2-6.3 3.3 0 6.1 2.8 6.1 6.3V46c3.7-1.7 8.5-3.2 12.4-3.2 7.1 0 12.3 2.1 16.6 6.6 4.3 4.4 6.6 10.7 6.6 17.7v15.3zm25.4-4.6c-6.5-2.4-11.5-7.5-11.5-16.6 0-10.7 8.7-18.3 20.7-18.3 8.1 0 12.3 1.2 16.3 3 2.4 1 3.9 3.2 3.9 5.7 0 3.2-2.5 5.8-5.7 5.8-.8 0-2-.2-2.9-.6-3-1.5-7.9-2.4-11.8-2.4-4.9 0-8.1 2.4-8.1 6.6 0 3.2 2.4 5.1 4.9 6l11.7 3.9c7.9 2.7 12.7 8.1 12.7 17 0 10.7-8.5 19.1-21.3 19.1-7.1 0-12.8-1.3-17.2-3.4-2.3-1.1-3.7-3.2-3.7-5.6 0-3.2 2.6-6.1 6-6.1.8 0 1.9.4 2.8.7 3.2 1.7 7.2 2.8 12.4 2.8 5.7 0 8.7-2.2 8.7-6.3 0-4.5-3.6-6-8-7.5l-9.9-3.8z" fill="#282829"/><path d="M62.8 54.1c-2.4 0-4.7 1-6.5 2.7L31.1 82.5c-1.7 1.8-2.7 4.1-2.7 6.6s1 4.8 2.7 6.6c1.7 1.8 4 2.7 6.5 2.7 2.4 0 4.7-1 6.5-2.7L69.3 70c3.6-3.6 3.6-9.5 0-13.2-1.7-1.7-4-2.7-6.5-2.7m-25.2 53c-4.7 0-9.2-1.9-12.6-5.3-3.4-3.4-5.2-7.9-5.2-12.7 0-4.8 1.9-9.4 5.2-12.8l25.3-25.6c3.4-3.4 7.8-5.3 12.6-5.3 4.7 0 9.2 1.9 12.6 5.3 6.9 7 6.9 18.5 0 25.5l-25.3 25.6c-3.4 3.4-7.9 5.3-12.6 5.3m0-78.6c-2.4 0-4.7 1-6.5 2.7-1.7 1.8-2.7 4.1-2.7 6.6s1 4.8 2.7 6.6L56.3 70c1.7 1.8 4 2.7 6.5 2.7 2.4 0 4.7-1 6.5-2.7 3.6-3.6 3.6-9.5 0-13.2L44 31.2c-1.7-1.7-4-2.7-6.4-2.7m25.2 53c-4.7 0-9.2-1.9-12.6-5.3L25 50.6c-3.4-3.4-5.2-7.9-5.2-12.7s1.9-9.3 5.2-12.8c3.4-3.4 7.8-5.3 12.6-5.3 4.7 0 9.2 1.9 12.6 5.3l25.3 25.6c6.9 7 6.9 18.5 0 25.5-3.5 3.4-7.9 5.3-12.7 5.3M349.5 76c0 6.1-4.9 11-10.8 11-6 0-10.8-4.9-10.8-11s4.8-11 10.8-11c6 0 10.8 4.9 10.8 11" fill="#96c121"/></svg>